<?xml version="1.0" encoding="utf-8"?>
<!-- Generator: Adobe Illustrator 15.0.0, SVG Export Plug-In . SVG Version: 6.00 Build 0)  -->
<!DOCTYPE svg PUBLIC "-//W3C//DTD SVG 1.1//EN" "http://www.w3.org/Graphics/SVG/1.1/DTD/svg11.dtd">
<svg version="1.1" id="Warstwa_1" xmlns="http://www.w3.org/2000/svg" xmlns:xlink="http://www.w3.org/1999/xlink" x="0px" y="0px"
	 width="901.042px" height="200.772px" viewBox="0 0 901.042 200.772" enable-background="new 0 0 901.042 200.772"
	 xml:space="preserve">
<g>
	<rect x="571.738" y="29.539" fill="#D02027" width="25.067" height="25.065"/>
	<rect x="596.805" y="4.471" fill="#D02027" width="25.067" height="25.067"/>
	<polygon fill="#D02027" points="672.005,29.539 672.005,4.471 646.938,4.471 646.938,29.539 621.873,29.539 621.873,54.604 
		596.805,54.604 596.805,79.671 621.873,79.671 621.873,104.738 646.938,104.738 646.938,79.671 672.005,79.671 672.005,54.604 
		697.072,54.604 697.072,29.539 	"/>
</g>
<g>
	<path fill="#111820" d="M0,4.04c7.405,0,14.813,0,22.22,0c7.404,0,14.812,0,22.22,0c7.944,0,14.98,1.111,21.109,3.333
		c6.126,2.222,10.939,5.893,14.443,11.009c3.5,5.119,5.252,11.918,5.252,20.402c0,7.947-2.19,14.108-6.565,18.482
		c-4.378,4.378-10.201,7.307-17.473,8.787L90.9,105.04H58.58l-30.3-38.38v38.38H0V4.04z M28.28,27.27V50.5h13.534
		c3.769,0,7.07-0.738,9.898-2.222c2.828-1.48,4.242-4.646,4.242-9.494c0-4.849-1.414-7.979-4.242-9.394
		c-2.828-1.414-6.129-2.121-9.898-2.121H28.28z"/>
	<path fill="#111820" d="M104.03,4.04c12.792,0,25.585,0,38.38,0c12.792,0,25.584,0,38.38,0V27.27h-48.48v15.15h42.42v23.229h-42.42
		V80.8h48.48v24.24c-12.795,0-25.588,0-38.38,0c-12.795,0-25.588,0-38.38,0V4.04z"/>
	<path fill="#111820" d="M190.887,4.04h88.88v24.24h-30.3v76.76h-28.28V28.28h-30.3V4.04z"/>
	<path fill="#111820" d="M292.896,4.04c7.405,0,14.813,0,22.22,0c7.404,0,14.812,0,22.22,0c7.944,0,14.98,1.111,21.109,3.333
		c6.126,2.222,10.939,5.893,14.442,11.009c3.501,5.119,5.253,11.918,5.253,20.402c0,7.947-2.19,14.108-6.565,18.482
		c-4.378,4.378-10.201,7.307-17.473,8.787l29.694,38.986h-32.32l-30.3-38.38v38.38h-28.28V4.04z M321.176,27.27V50.5h13.534
		c3.769,0,7.07-0.738,9.898-2.222c2.828-1.48,4.242-4.646,4.242-9.494c0-4.849-1.414-7.979-4.242-9.394
		c-2.828-1.414-6.13-2.121-9.898-2.121H321.176z"/>
	<path fill="#111820" d="M400.461,27.068c4.375-8.213,10.706-14.778,18.988-19.695C427.73,2.459,437.729,0,449.446,0
		c11.716,0,21.715,2.459,29.997,7.373c8.281,4.917,14.61,11.482,18.987,19.695c4.375,8.215,6.565,17.371,6.565,27.472
		c0,10.1-2.19,19.26-6.565,27.472c-4.377,8.216-10.706,14.781-18.987,19.695c-8.282,4.917-18.281,7.373-29.997,7.373
		c-11.717,0-21.716-2.456-29.997-7.373c-8.282-4.914-14.613-11.479-18.988-19.695c-4.378-8.212-6.565-17.372-6.565-27.472
		C393.896,44.439,396.083,35.283,400.461,27.068z M427.125,70.498c2.626,4.312,5.959,7.609,9.999,9.897
		c4.04,2.292,8.146,3.435,12.322,3.435c4.172,0,8.281-1.143,12.321-3.435c4.04-2.288,7.373-5.586,9.999-9.897
		c2.626-4.309,3.939-9.627,3.939-15.958c0-6.328-1.313-11.646-3.939-15.958c-2.626-4.309-5.959-7.606-9.999-9.898
		c-4.04-2.288-8.149-3.434-12.321-3.434c-4.176,0-8.282,1.146-12.322,3.434c-4.04,2.292-7.373,5.59-9.999,9.898
		c-2.626,4.312-3.939,9.63-3.939,15.958C423.186,60.871,424.499,66.189,427.125,70.498z"/>
	<path fill="#111820" d="M520.143,4.04h28.28V80.8h48.479v24.24c-12.794,0-25.586,0-38.379,0c-12.795,0-25.588,0-38.38,0V4.04z"/>
</g>
<g>
	<path fill="#111820" d="M763.623,107.059h-32.32l-40.4-101h30.301l26.26,72.922l26.26-72.922h30.301L763.623,107.059z"/>
	<path fill="#111820" d="M815.129,6.059c12.792,0,25.585,0,38.38,0c12.793,0,25.585,0,38.381,0v23.229h-48.48v15.15h42.42v23.229
		h-42.42v15.15h48.48v24.24c-12.796,0-25.588,0-38.381,0c-12.795,0-25.588,0-38.38,0V6.059z"/>
</g>
<g>
	<path fill="#111820" d="M703.316,138.529c0.469,1.561,0.896,3.005,1.287,4.329c0.388,1.327,0.586,2.848,0.586,4.563
		c0,0.625-0.393,0.936-1.171,0.936c-1.718-0.468-3.393-0.778-5.03-0.936c-1.639-0.153-3.316-0.388-5.031-0.702h-1.17
		c-0.314-0.153-0.937-0.233-1.873-0.233c0.469,0.314,0.973,0.585,1.521,0.818c0.545,0.234,0.819,0.666,0.819,1.287
		c-2.808,5.463-5.616,10.845-8.425,16.146c-2.807,5.301-5.695,10.215-8.657,14.741c-2.966,4.523-6.201,8.618-9.711,12.285
		c-3.511,3.664-7.371,6.589-11.583,8.775c0,0.153-0.157,0.233-0.469,0.233c-6.24-1.718-11.231-5.147-14.976-10.296
		c0-0.314,0.077-0.625,0.234-0.936c0.153-0.314,0.388-0.468,0.702-0.468c1.557,0.311,2.885,0.468,3.978,0.468
		c5.147,0,9.243-1.21,12.285-3.627c3.042-2.421,5.652-5.111,7.839-8.073c-0.782,0.153-1.484,0.271-2.105,0.352
		c-0.625,0.076-1.328,0.116-2.106,0.116c-7.021,0-12.482-2.303-16.38-6.902c-3.901-4.6-5.85-10.022-5.85-16.264
		c0-3.587,0.584-7.447,1.754-11.583c1.17-4.131,2.809-8.307,4.914-12.519c2.106-4.212,4.681-8.344,7.723-12.402
		c3.042-4.055,6.512-7.722,10.413-10.998c1.558-1.403,3.587-3.002,6.084-4.797c2.493-1.791,5.147-3.47,7.956-5.031
		c2.808-1.558,5.652-2.885,8.541-3.978c2.885-1.09,5.576-1.638,8.072-1.638c3.276,0,5.77,1.016,7.488,3.042
		c1.715,2.029,2.962,5.071,3.744,9.126c-0.157,0-0.585,0.625-1.287,1.872c-0.701,1.25-1.561,2.573-2.574,3.978
		c-1.016,1.404-2.146,2.731-3.393,3.979c-1.25,1.25-2.497,1.871-3.744,1.871c-0.468,0-0.701-0.387-0.701-1.17
		c0.467-1.246,0.895-2.533,1.286-3.86c0.388-1.324,0.585-2.61,0.585-3.861c0-1.558-0.314-2.885-0.936-3.978
		c-0.625-1.09-1.719-1.639-3.276-1.639c-1.562,0-3.042,0.392-4.446,1.17c-4.837,2.341-9.359,5.423-13.572,9.243
		c-4.211,3.824-7.879,7.996-10.998,12.52c-3.121,4.526-5.578,9.242-7.37,14.156c-1.796,4.914-2.691,9.635-2.691,14.157
		c0,1.562,0.194,3.276,0.585,5.148c0.388,1.872,1.014,3.627,1.872,5.265c0.856,1.638,1.989,3.006,3.394,4.095
		c1.404,1.09,3.195,1.639,5.382,1.639c2.962,0,5.499-0.859,7.604-2.574c2.106-1.715,3.938-3.78,5.5-6.201
		c1.557-2.417,2.885-4.95,3.978-7.604c1.089-2.651,2.025-4.834,2.808-6.553c-9.828,0-18.252,1.872-25.271,5.616
		c-0.158,0.157-0.314,0.234-0.469,0.234c-0.314,0-0.468-0.312-0.468-0.937c0.937-3.43,2.728-6.12,5.382-8.072
		c2.65-1.949,5.616-3.394,8.893-4.329c3.275-0.937,6.629-1.521,10.062-1.756c3.43-0.233,6.318-0.351,8.658-0.351
		c2.651,0,5.067,0.117,7.254,0.351c2.183,0.234,4.212,0.743,6.084,1.521c0.153,0,0.233,0.04,0.233,0.117
		C703.082,138.492,703.16,138.529,703.316,138.529z"/>
	<path fill="#111820" d="M750.582,148.123c0.467,0.314,0.701,0.702,0.701,1.17l-0.936,3.978c0,0.314-0.08,0.469-0.234,0.469
		c-7.645,9.828-14.04,14.741-19.188,14.741c-0.783,0-1.953-0.343-3.51-1.023c-1.563-0.684-2.341-1.634-2.341-2.848
		c-3.433,2.581-6.398,3.871-8.892,3.871c-3.744,0-6.826-1.013-9.243-3.042c-2.421-2.025-3.627-4.833-3.627-8.424
		c0-2.808,0.738-5.85,2.223-9.126c1.481-3.275,3.47-6.629,5.968-10.062c1.089-1.404,2.573-3.119,4.445-5.148
		c1.872-2.025,3.979-3.978,6.318-5.85s4.914-3.43,7.722-4.681c2.808-1.246,5.616-1.871,8.424-1.871c2.026,0,3.511,0.701,4.446,2.105
		c1.246-1.247,2.728-2.065,4.445-2.457c1.715-0.388,3.664-0.585,5.851-0.585c0.778,0,1.403,0.234,1.872,0.702
		c0,0.468-0.08,0.782-0.234,0.936c-7.177,10.673-12.285,18.874-15.326,24.6c-3.043,5.729-4.563,10.084-4.563,13.067
		c0,0.943,0.233,1.411,0.702,1.411c0.621,0,1.638-0.621,3.042-1.872c1.403-1.246,2.885-2.61,4.446-4.095
		c1.557-1.48,3.041-2.845,4.445-4.095C748.943,148.748,749.956,148.123,750.582,148.123z M734.669,134.083
		c0.778-1.558,1.17-2.808,1.17-3.744c0-0.778-0.314-1.17-0.937-1.17c-0.625,0-1.251,0.157-1.872,0.468
		c-2.497,1.094-4.877,2.574-7.137,4.446c-2.264,1.872-4.293,3.978-6.084,6.318c-1.795,2.34-3.199,4.797-4.213,7.37
		c-1.016,2.574-1.521,5.112-1.521,7.605c0,1.562,0.585,2.771,1.755,3.627c1.17,0.859,2.377,1.287,3.627,1.287
		c1.404,0,2.534-0.468,3.394-1.404c0.855-0.936,1.598-2.065,2.223-3.393c0.622-1.324,1.13-2.768,1.521-4.329
		c0.389-1.558,0.896-2.962,1.521-4.212l0.234-0.937c0.936-2.025,1.908-3.978,2.925-5.85
		C732.289,138.295,733.418,136.27,734.669,134.083z"/>
	<path fill="#111820" d="M823.353,147.889c0.311,0.314,0.468,0.702,0.468,1.17l-0.702,3.979c0,0.314-0.08,0.468-0.234,0.468
		c-7.955,9.985-14.324,14.976-19.104,14.976c-1.985,0-3.627-0.814-4.925-2.442c-1.298-1.627-1.945-3.758-1.945-6.398
		c0-3.411,0.765-6.979,2.296-10.701c1.529-3.723,3.061-6.823,4.593-9.306c0.153-0.307,0.534-0.852,1.147-1.627
		c0.611-0.775,1.222-1.627,1.836-2.56c0.61-0.929,1.145-1.897,1.605-2.906s0.69-1.824,0.69-2.446c0-1.082-0.782-1.627-2.34-1.627
		c-4.837,0.157-9.283,2.951-13.338,8.377c-4.059,5.429-7.646,12.099-10.765,20.007c-1.403,3.726-2.34,6.519-2.808,8.38
		s-0.702,3.178-0.702,3.952v0.702c0,0.153,0.077,0.234,0.234,0.234c-1.25-0.157-2.457-0.234-3.627-0.234s-2.304-0.157-3.393-0.464
		c-1.094-0.312-1.953-0.893-2.574-1.744c-0.625-0.853-0.937-2.289-0.937-4.308c0-1.703,0.194-3.447,0.585-5.231
		c0.388-1.784,1.13-3.956,2.223-6.516c1.09-2.56,2.651-5.623,4.681-9.192c2.025-3.568,4.757-7.912,8.19-13.03
		c-0.158-0.622-0.859-0.933-2.106-0.933c-2.654,0-5.265,0.893-7.839,2.677s-4.797,3.451-6.67,5.002
		c-2.807,6.051-5.228,11.48-7.254,16.288c-1.871,4.036-3.55,7.835-5.03,11.404c-1.484,3.568-2.224,5.579-2.224,6.047
		c-1.093,0-2.186,0-3.275,0c-1.094,0-2.105-0.197-3.042-0.585c-0.937-0.391-1.675-1.093-2.224-2.105
		c-0.545-1.014-0.818-2.457-0.818-4.329s0.314-3.938,0.936-6.201c0.625-2.26,1.756-5.031,3.394-8.308
		c1.638-3.275,3.938-7.254,6.903-11.934c2.961-4.68,6.785-10.53,11.465-17.55c0.312-0.311,0.622-0.468,0.937-0.468
		c2.183,0,3.47,0.72,3.861,2.157c0.388,1.437,0.585,2.552,0.585,3.349c0,1.598-0.08,2.717-0.234,3.353
		c2.52-1.923,5.119-3.608,7.795-5.053c2.677-1.444,5.357-2.168,8.037-2.168c5.667,0,8.504,2.49,8.504,7.462
		c2.65-1.923,5.302-3.648,7.956-5.173c2.651-1.525,5.302-2.289,7.956-2.289c5.927,0,8.893,2.187,8.893,6.552
		c0,2.34-0.717,4.914-2.146,7.723c-1.43,2.808-2.977,5.615-4.644,8.424c-1.667,2.808-3.177,5.579-4.526,8.307
		c-1.35,2.731-2.021,5.188-2.021,7.371c0,0.936,0.233,1.404,0.701,1.404c0.469,0,1.404-0.622,2.809-1.872
		c1.404-1.247,2.885-2.61,4.445-4.096c1.559-1.48,3.079-2.844,4.563-4.095C821.674,148.514,822.728,147.889,823.353,147.889z"/>
	<path fill="#111820" d="M852.603,147.889c0.467,0,0.701,0.392,0.701,1.17l-0.701,3.744c0,0.157-0.041,0.274-0.117,0.352
		c-0.08,0.08-0.117,0.197-0.117,0.351c-7.956,9.985-14.354,14.976-19.188,14.976c-3.591,0-6.633-0.972-9.127-2.925
		c-2.497-1.948-3.744-4.716-3.744-8.307c0-5.927,2.651-12.402,7.957-19.422c1.089-1.404,2.609-3.119,4.563-5.148
		c1.949-2.025,4.095-3.978,6.436-5.85c2.34-1.872,4.873-3.43,7.604-4.681c2.728-1.246,5.499-1.871,8.308-1.871
		c2.025,0,3.51,0.665,4.445,1.988c0.936,1.327,1.404,2.926,1.404,4.797c0,1.719-0.391,3.356-1.17,4.914
		c-0.783,1.562-1.795,2.966-3.043,4.212c-1.25,1.251-2.613,2.421-4.094,3.511c-1.484,1.093-2.85,2.105-4.096,3.042l-0.702,0.468
		c-2.654,1.872-5.306,3.627-7.956,5.265c-2.654,1.639-5.539,2.925-8.658,3.861c-0.314,1.25-0.468,2.263-0.468,3.042
		c0,1.25,0.585,2.34,1.755,3.276c1.17,0.936,2.457,1.403,3.861,1.403c1.558,0,3.119-0.621,4.68-1.872
		c1.559-1.246,3.079-2.65,4.563-4.212c1.48-1.558,2.808-2.961,3.978-4.212C850.847,148.514,851.82,147.889,852.603,147.889z
		 M837.626,138.763c-2.34,2.809-4.059,5.773-5.148,8.893c0.937-0.469,1.909-0.973,2.926-1.521c1.013-0.545,2.143-1.206,3.393-1.989
		l0.936-0.468c1.09-0.621,2.377-1.404,3.861-2.34c1.48-0.936,2.885-1.949,4.213-3.042c1.322-1.09,2.457-2.223,3.393-3.393
		c0.936-1.171,1.404-2.377,1.404-3.627c0-0.937-0.783-1.404-2.34-1.404c-1.252,0-2.538,0.351-3.861,1.053
		c-1.328,0.702-2.537,1.521-3.627,2.457c-1.094,0.937-2.106,1.912-3.043,2.925C838.796,137.322,838.095,138.142,837.626,138.763z"/>
	<path fill="#111820" d="M888.64,117.703c0.621-0.153,1.287-0.311,1.988-0.468c0.703-0.154,1.365-0.234,1.99-0.234
		c1.871,0,3.313,0.314,4.328,0.936c1.014,0.626,1.791,1.327,2.34,2.106c0.545,0.782,0.936,1.521,1.17,2.223s0.428,1.134,0.586,1.287
		c0,0.625-0.314,1.094-0.936,1.404c-6.398,2.187-10.922,4.526-13.572,7.02c-2.654,2.498-4.41,5.031-5.266,7.605
		c-0.859,2.574-1.287,5.229-1.287,7.956c0,2.731-0.549,5.499-1.639,8.307c0.623-0.468,1.873-1.363,3.744-2.69
		c1.873-1.324,3.861-2.691,5.967-4.096c2.107-1.403,4.096-2.65,5.969-3.744c1.871-1.089,3.117-1.638,3.744-1.638
		c0.152,0,0.232,0.157,0.232,0.468c0,0.626-0.391,1.521-1.17,2.691c-0.781,1.17-2.186,2.457-4.211,3.861
		c-2.498,1.718-5.189,3.784-8.074,6.2c-2.889,2.421-5.85,4.798-8.891,7.138c-3.043,2.34-5.967,4.329-8.775,5.967
		s-5.305,2.534-7.488,2.691c-2.498,0-4.527-0.442-6.084-1.324c-1.557-0.885-2.768-1.927-3.627-3.13
		c-0.855-1.202-1.521-2.398-1.989-3.59c-0.468-1.188-0.937-2.172-1.403-2.954c0-0.469,0.156-0.937,0.467-1.404
		c0.314-0.937,1.018-1.404,2.107-1.404c0.156,0,0.467,0.274,0.936,0.819c0.467,0.548,1.053,1.17,1.754,1.872
		c0.703,0.702,1.482,1.327,2.342,1.872c0.855,0.548,1.83,0.818,2.924,0.818c2.184,0,4.6-1.122,7.254-3.374
		c2.65-2.253,4.447-6.249,5.383-11.993c0.311-2.325,0.936-5.313,1.871-8.961c0.936-3.649,2.34-7.181,4.213-10.596
		c-4.994,4.036-9.4,8.5-13.221,13.389c-3.826,4.893-7.764,9.51-11.818,13.854c-0.311-0.774-0.504-1.631-0.584-2.563
		c-0.078-0.929-0.193-1.784-0.352-2.56c2.809-2.947,5.732-6.132,8.775-9.547c3.041-3.415,6.16-6.749,9.359-10.011
		c3.195-3.261,6.553-6.172,10.063-8.73C881.269,120.617,884.896,118.793,888.64,117.703z"/>
</g>
</svg>
